<?xml version="1.0" encoding="iso-8859-1"?>
<!-- Uploaded to: SVG Repo, www.svgrepo.com, Generator: SVG Repo Mixer Tools -->
<svg height="800px" width="800px" version="1.1" id="Layer_1" xmlns="http://www.w3.org/2000/svg" xmlns:xlink="http://www.w3.org/1999/xlink" 
	 viewBox="0 0 512 512" xml:space="preserve">
<g>
	<polygon style="fill:#919CB0;" points="499.2,115.2 192,115.2 192,33.604 7.467,217.6 499.2,217.6 	"/>
	<polygon style="fill:#919CB0;" points="12.8,396.8 320,396.8 320,478.933 505.847,294.4 12.8,294.4 	"/>
</g>
<g>
	<path style="fill:#573A32;" d="M188.996,27.546c-3.166-1.306-6.494-1.946-9.788-1.946c-6.665,0-13.21,2.603-18.108,7.501
		l-153.6,153.6c-7.322,7.322-9.515,18.33-5.547,27.895S15.249,230.4,25.6,230.4h460.8c14.14,0,25.6-11.46,25.6-25.6V128
		c0-14.14-11.46-25.6-25.6-25.6H204.8V51.2C204.8,40.849,198.562,31.514,188.996,27.546z M486.4,128v76.8H25.6L179.2,51.2V128H486.4
		z"/>
	<path style="fill:#573A32;" d="M0,384c0,14.14,11.46,25.6,25.6,25.6h281.6v51.2c0,10.351,6.238,19.686,15.804,23.654
		c3.166,1.306,6.494,1.946,9.788,1.946c6.664,0,13.21-2.603,18.108-7.501l153.6-153.6c7.322-7.322,9.515-18.33,5.547-27.895
		c-3.968-9.566-13.295-15.804-23.646-15.804H25.6C11.46,281.6,0,293.06,0,307.2V384z M25.6,307.2h460.8L332.8,460.8V384H25.6V307.2z
		"/>
</g>
</svg>